<?xml version="1.0" encoding="utf-8"?>
<!-- Generator: Adobe Illustrator 16.0.3, SVG Export Plug-In . SVG Version: 6.00 Build 0)  -->
<!DOCTYPE svg PUBLIC "-//W3C//DTD SVG 1.1//EN" "http://www.w3.org/Graphics/SVG/1.1/DTD/svg11.dtd">
<svg version="1.1" id="Layer_1" xmlns="http://www.w3.org/2000/svg" xmlns:xlink="http://www.w3.org/1999/xlink" x="0px" y="0px"
	 width="89.586px" height="8.586px" viewBox="0 0 89.586 8.586" enable-background="new 0 0 89.586 8.586" xml:space="preserve">
<g>
	<path fill="#007299" d="M5.697,6.704v1.787H0V0.096h2.135v6.607H5.697z"/>
	<path fill="#007299" d="M8.855,1.775v1.667h4.005v1.68H8.855v1.69h4.569v1.679H6.72V0.096h6.573v1.679H8.855z"/>
	<path fill="#007299" d="M16.943,1.775v1.667h4.005v1.68h-4.005v1.69h4.569v1.679h-6.705V0.096h6.573v1.679H16.943z"/>
	<path fill="#007299" d="M26.506,0.096c2.638,0,4.461,1.703,4.461,4.198c0,2.483-1.847,4.199-4.545,4.199h-3.526V0.096H26.506z
		 M25.031,6.788h1.523c1.307,0,2.243-1.006,2.243-2.481c0-1.487-0.983-2.507-2.339-2.507h-1.427V6.788z"/>
	<path fill="#007299" d="M38.636,0.936l-0.804,1.667c-0.887-0.516-2.003-0.875-2.687-0.875c-0.552,0-0.923,0.204-0.923,0.611
		c0,1.452,4.438,0.624,4.438,3.658c0,1.68-1.487,2.566-3.358,2.566c-1.403,0-2.843-0.527-3.838-1.344l0.827-1.643
		c0.864,0.756,2.159,1.26,3.035,1.26c0.671,0,1.091-0.252,1.091-0.731c0-1.487-4.438-0.601-4.438-3.574
		c0-1.547,1.331-2.53,3.346-2.53C36.538,0,37.772,0.372,38.636,0.936z"/>
	<path fill="#007299" d="M41.447,7.581c0,0.6-0.419,1.006-1.007,1.006c-0.587,0-0.996-0.407-0.996-1.006
		c0-0.588,0.408-0.996,0.996-0.996C41.027,6.584,41.447,6.993,41.447,7.581z"/>
	<path fill="#007299" d="M50.168,4.222v3.274c-0.9,0.635-2.315,1.09-3.49,1.09c-2.555,0-4.486-1.846-4.486-4.292
		c0-2.435,1.979-4.27,4.63-4.27c1.247,0,2.566,0.479,3.431,1.247l-1.199,1.451c-0.611-0.563-1.463-0.911-2.243-0.911
		c-1.379,0-2.435,1.079-2.435,2.482c0,1.426,1.067,2.506,2.458,2.506c0.433,0,0.983-0.155,1.487-0.407v-2.17H50.168z"/>
	<path fill="#007299" d="M60.187,4.282c0,2.446-1.942,4.304-4.545,4.304c-2.591,0-4.534-1.846-4.534-4.304
		c0-2.447,1.943-4.258,4.534-4.258C58.245,0.024,60.187,1.847,60.187,4.282z M53.292,4.293c0,1.417,1.09,2.506,2.375,2.506
		c1.295,0,2.326-1.09,2.326-2.506c0-1.415-1.031-2.482-2.326-2.482S53.292,2.878,53.292,4.293z"/>
	<path fill="#007299" d="M63.61,8.491l-3.262-8.396h2.279l2.146,6.177l2.146-6.177h2.195l-3.298,8.396H63.61z"/>
	<path fill="#007299" d="M71.17,7.581c0,0.6-0.418,1.006-1.006,1.006s-0.996-0.407-0.996-1.006c0-0.588,0.408-0.996,0.996-0.996
		S71.17,6.993,71.17,7.581z"/>
	<path fill="#007299" d="M80.024,4.965c0,2.219-1.475,3.621-3.826,3.621c-2.361,0-3.873-1.402-3.873-3.621V0.095h2.135v4.871
		c0,1.139,0.73,1.834,1.75,1.834c1.008,0,1.691-0.695,1.691-1.834V0.095h2.123V4.965z"/>
	<path fill="#007299" d="M84.814,5.193L83.7,6.428v2.063h-2.136V0.096H83.7V3.73l3.213-3.634h2.471l-3.117,3.478l3.322,4.917h-2.555
		L84.814,5.193z"/>
</g>
</svg>
