<?xml version="1.0" encoding="utf-8"?>
<!-- Generator: Adobe Illustrator 16.0.3, SVG Export Plug-In . SVG Version: 6.00 Build 0)  -->
<!DOCTYPE svg PUBLIC "-//W3C//DTD SVG 1.1//EN" "http://www.w3.org/Graphics/SVG/1.1/DTD/svg11.dtd">
<svg version="1.1" id="Layer_1" xmlns="http://www.w3.org/2000/svg" xmlns:xlink="http://www.w3.org/1999/xlink" x="0px" y="0px"
	 width="73.276px" height="8.586px" viewBox="0 0 73.276 8.586" enable-background="new 0 0 73.276 8.586" xml:space="preserve">
<g>
	<path fill="#FFFFFF" d="M5.712,6.698v1.791H0V0.072h2.141v6.625H5.712z"/>
	<path fill="#FFFFFF" d="M14.072,1.42l-1.238,1.467c-0.553-0.674-1.371-1.095-2.116-1.095c-1.335,0-2.345,1.058-2.345,2.441
		c0,1.406,1.01,2.478,2.345,2.478c0.709,0,1.527-0.387,2.116-0.988l1.25,1.322c-0.902,0.928-2.237,1.541-3.475,1.541
		c-2.537,0-4.425-1.863-4.425-4.33C6.184,1.828,8.12,0,10.681,0C11.932,0,13.23,0.554,14.072,1.42z"/>
	<path fill="#FFFFFF" d="M22.253,1.42l-1.239,1.467c-0.553-0.674-1.371-1.095-2.116-1.095c-1.335,0-2.345,1.058-2.345,2.441
		c0,1.406,1.01,2.478,2.345,2.478c0.709,0,1.527-0.387,2.116-0.988l1.25,1.322c-0.902,0.928-2.237,1.541-3.475,1.541
		c-2.538,0-4.426-1.863-4.426-4.33C14.364,1.828,16.301,0,18.862,0C20.112,0,21.411,0.554,22.253,1.42z"/>
	<path fill="#FFFFFF" d="M29.654,0.072c2.645,0,4.473,1.708,4.473,4.208c0,2.49-1.852,4.208-4.557,4.208h-3.535V0.072H29.654z
		 M28.174,6.782h1.527c1.311,0,2.249-1.01,2.249-2.489c0-1.491-0.986-2.513-2.345-2.513h-1.431V6.782z"/>
	<path fill="#FFFFFF" d="M35.262,8.489V0.072h2.14v8.417H35.262z"/>
	<path fill="#FFFFFF" d="M46.53,4.209v3.284c-0.9,0.635-2.32,1.094-3.498,1.094c-2.562,0-4.498-1.852-4.498-4.306
		c0-2.439,1.984-4.28,4.642-4.28c1.251,0,2.573,0.481,3.438,1.251l-1.201,1.455c-0.614-0.565-1.467-0.914-2.249-0.914
		c-1.383,0-2.44,1.083-2.44,2.488c0,1.431,1.069,2.515,2.465,2.515c0.433,0,0.986-0.158,1.49-0.41V4.209H46.53z"/>
	<path fill="#FFFFFF" d="M48.026,8.489V0.072h2.141v8.417H48.026z"/>
	<path fill="#FFFFFF" d="M55.749,1.792v6.697H53.61V1.792h-2.516V0.061h7.191v1.731H55.749z"/>
	<path fill="#FFFFFF" d="M60.211,6.938l-0.613,1.551h-2.197l3.629-8.417h2.201l3.547,8.417h-2.283l-0.604-1.551H60.211z
		 M62.065,2.201l-1.227,3.114h2.428L62.065,2.201z"/>
	<path fill="#FFFFFF" d="M73.276,6.698v1.791h-5.711V0.072h2.141v6.625H73.276z"/>
</g>
</svg>
