<?xml version="1.0" encoding="utf-8"?>
<!-- Generator: Adobe Illustrator 16.0.3, SVG Export Plug-In . SVG Version: 6.00 Build 0)  -->
<!DOCTYPE svg PUBLIC "-//W3C//DTD SVG 1.1//EN" "http://www.w3.org/Graphics/SVG/1.1/DTD/svg11.dtd">
<svg version="1.1" id="Layer_1" xmlns="http://www.w3.org/2000/svg" xmlns:xlink="http://www.w3.org/1999/xlink" x="0px" y="0px"
	 width="59.619px" height="33.536px" viewBox="0 0 59.619 33.536" enable-background="new 0 0 59.619 33.536" xml:space="preserve">
<g>
	<rect fill="#455B65" width="59.619" height="33.536"/>
	<g>
		<path fill="#ECEFF0" d="M21.771,18.661v-5.562h-1.286v-1.425h3.06v6.987H21.771z"/>
		<path fill="#ECEFF0" d="M30.413,12.182l-0.678,1.236c-0.398-0.289-0.927-0.448-1.465-0.448c-1.116,0-1.655,0.708-1.635,1.854
			c0.329-0.469,0.887-0.748,1.665-0.748c1.376,0,2.253,0.897,2.253,2.252c0,1.476-1.037,2.413-2.611,2.413
			c-1.874,0-3.01-1.326-3.01-3.469c0-2.223,1.266-3.668,3.229-3.668C28.938,11.604,29.825,11.823,30.413,12.182z M26.824,16.348
			c0,0.519,0.329,0.977,1.047,0.977c0.638,0,1.037-0.359,1.037-1.007c0-0.598-0.369-0.947-1.007-0.947
			C27.213,15.372,26.824,15.78,26.824,16.348z"/>
		<path fill="#ECEFF0" d="M32.865,14.943c0,0.498-0.349,0.837-0.837,0.837c-0.489,0-0.828-0.339-0.828-0.837
			c0-0.489,0.339-0.828,0.828-0.828C32.516,14.115,32.865,14.454,32.865,14.943z M32.865,17.903c0,0.498-0.349,0.837-0.837,0.837
			c-0.489,0-0.828-0.339-0.828-0.837c0-0.489,0.339-0.828,0.828-0.828C32.516,17.076,32.865,17.415,32.865,17.903z"/>
		<path fill="#ECEFF0" d="M33.652,18.152l0.678-1.236c0.399,0.289,0.927,0.448,1.465,0.448c1.116,0,1.655-0.708,1.635-1.854
			c-0.329,0.469-0.887,0.748-1.665,0.748c-1.375,0-2.253-0.897-2.253-2.252c0-1.475,1.037-2.412,2.612-2.412
			c1.874,0,3.01,1.326,3.01,3.469c0,2.223-1.266,3.668-3.23,3.668C35.127,18.73,34.24,18.511,33.652,18.152z M37.24,13.986
			c0-0.519-0.329-0.977-1.047-0.977c-0.638,0-1.037,0.359-1.037,1.007c0,0.598,0.369,0.947,1.007,0.947
			C36.852,14.963,37.24,14.554,37.24,13.986z"/>
		<path fill="#ECEFF0" d="M24.812,19.886v1.57h-0.203v-1.57H24.812z"/>
		<path fill="#ECEFF0" d="M25.182,20.633c0-0.117-0.002-0.212-0.009-0.305h0.179l0.009,0.182h0.007
			c0.063-0.107,0.167-0.207,0.354-0.207c0.153,0,0.27,0.093,0.319,0.226h0.005c0.035-0.063,0.079-0.112,0.125-0.146
			c0.068-0.051,0.142-0.079,0.25-0.079c0.149,0,0.37,0.098,0.37,0.489v0.664h-0.2v-0.638c0-0.217-0.079-0.347-0.245-0.347
			c-0.117,0-0.208,0.086-0.242,0.187c-0.009,0.028-0.016,0.065-0.016,0.103v0.696h-0.201V20.78c0-0.179-0.079-0.31-0.235-0.31
			c-0.128,0-0.222,0.103-0.254,0.205c-0.012,0.03-0.017,0.065-0.017,0.1v0.68h-0.2V20.633z"/>
		<path fill="#ECEFF0" d="M27.748,21.456l-0.016-0.142h-0.007c-0.063,0.088-0.184,0.167-0.344,0.167
			c-0.229,0-0.345-0.161-0.345-0.324c0-0.272,0.242-0.421,0.678-0.419v-0.023c0-0.093-0.026-0.261-0.256-0.261
			c-0.105,0-0.214,0.032-0.293,0.083l-0.046-0.135c0.093-0.061,0.228-0.1,0.37-0.1c0.345,0,0.429,0.235,0.429,0.461v0.421
			c0,0.098,0.004,0.193,0.019,0.271H27.748z M27.718,20.88c-0.224-0.005-0.478,0.035-0.478,0.253c0,0.133,0.089,0.196,0.193,0.196
			c0.147,0,0.24-0.093,0.272-0.188c0.007-0.021,0.012-0.044,0.012-0.065V20.88z"/>
		<path fill="#ECEFF0" d="M29.218,20.328c-0.005,0.082-0.009,0.172-0.009,0.31v0.654c0,0.258-0.051,0.417-0.161,0.515
			c-0.11,0.103-0.268,0.135-0.41,0.135c-0.135,0-0.284-0.033-0.375-0.093l0.051-0.156c0.075,0.047,0.191,0.088,0.331,0.088
			c0.21,0,0.363-0.109,0.363-0.394v-0.125h-0.004c-0.063,0.104-0.184,0.188-0.359,0.188c-0.279,0-0.479-0.237-0.479-0.549
			c0-0.382,0.249-0.599,0.508-0.599c0.195,0,0.303,0.102,0.352,0.195h0.004l0.009-0.17H29.218z M29.006,20.773
			c0-0.035-0.002-0.065-0.012-0.093c-0.037-0.119-0.138-0.216-0.287-0.216c-0.196,0-0.335,0.165-0.335,0.426
			c0,0.221,0.112,0.405,0.333,0.405c0.126,0,0.24-0.08,0.284-0.21c0.012-0.035,0.017-0.074,0.017-0.109V20.773z"/>
		<path fill="#ECEFF0" d="M29.663,20.929c0.004,0.277,0.182,0.391,0.386,0.391c0.147,0,0.235-0.025,0.313-0.058l0.035,0.146
			c-0.072,0.033-0.196,0.07-0.375,0.07c-0.347,0-0.554-0.228-0.554-0.568c0-0.34,0.2-0.608,0.529-0.608
			c0.368,0,0.466,0.324,0.466,0.531c0,0.042-0.005,0.075-0.007,0.096H29.663z M30.263,20.782c0.002-0.13-0.054-0.333-0.284-0.333
			c-0.207,0-0.298,0.191-0.314,0.333H30.263z"/>
		<path fill="#ECEFF0" d="M31.209,20.68c0-0.133-0.002-0.247-0.01-0.352h0.18l0.007,0.221h0.009
			c0.051-0.151,0.175-0.247,0.312-0.247c0.023,0,0.04,0.002,0.058,0.007v0.193c-0.021-0.005-0.042-0.007-0.07-0.007
			c-0.144,0-0.247,0.109-0.274,0.263c-0.005,0.028-0.01,0.061-0.01,0.095v0.601h-0.202V20.68z"/>
		<path fill="#ECEFF0" d="M32.583,21.456l-0.017-0.142H32.56c-0.063,0.088-0.184,0.167-0.345,0.167
			c-0.229,0-0.345-0.161-0.345-0.324c0-0.272,0.242-0.421,0.678-0.419v-0.023c0-0.093-0.025-0.261-0.256-0.261
			c-0.104,0-0.214,0.032-0.293,0.083l-0.046-0.135c0.093-0.061,0.228-0.1,0.37-0.1c0.345,0,0.429,0.235,0.429,0.461v0.421
			c0,0.098,0.005,0.193,0.019,0.271H32.583z M32.553,20.88c-0.224-0.005-0.478,0.035-0.478,0.253c0,0.133,0.088,0.196,0.193,0.196
			c0.146,0,0.24-0.093,0.272-0.188c0.007-0.021,0.012-0.044,0.012-0.065V20.88z"/>
		<path fill="#ECEFF0" d="M33.319,20.004v0.324h0.293v0.156h-0.293v0.608c0,0.14,0.04,0.219,0.154,0.219
			c0.053,0,0.093-0.007,0.119-0.014l0.009,0.154c-0.04,0.017-0.103,0.028-0.182,0.028c-0.096,0-0.172-0.03-0.221-0.086
			c-0.058-0.061-0.079-0.161-0.079-0.293v-0.615h-0.175v-0.156h0.175v-0.27L33.319,20.004z"/>
		<path fill="#ECEFF0" d="M34.071,20.011c0.002,0.07-0.049,0.126-0.13,0.126c-0.072,0-0.124-0.056-0.124-0.126
			c0-0.072,0.054-0.128,0.128-0.128C34.022,19.883,34.071,19.939,34.071,20.011z M33.843,21.456v-1.127h0.205v1.127H33.843z"/>
		<path fill="#ECEFF0" d="M35.408,20.882c0,0.417-0.289,0.599-0.561,0.599c-0.305,0-0.541-0.224-0.541-0.58
			c0-0.377,0.247-0.599,0.559-0.599C35.189,20.303,35.408,20.538,35.408,20.882z M34.513,20.894c0,0.247,0.142,0.433,0.343,0.433
			c0.195,0,0.342-0.184,0.342-0.438c0-0.191-0.096-0.434-0.338-0.434S34.513,20.68,34.513,20.894z"/>
	</g>
</g>
</svg>
