<?xml version="1.0" encoding="utf-8"?>
<!-- Generator: Adobe Illustrator 16.0.3, SVG Export Plug-In . SVG Version: 6.00 Build 0)  -->
<!DOCTYPE svg PUBLIC "-//W3C//DTD SVG 1.1//EN" "http://www.w3.org/Graphics/SVG/1.1/DTD/svg11.dtd">
<svg version="1.1" id="Layer_1" xmlns="http://www.w3.org/2000/svg" xmlns:xlink="http://www.w3.org/1999/xlink" x="0px" y="0px"
	 width="59.619px" height="33.536px" viewBox="0 0 59.619 33.536" enable-background="new 0 0 59.619 33.536" xml:space="preserve">
<rect fill="#455B65" width="59.619" height="33.536"/>
<g opacity="0.25">
	<g>
		<path fill="#ECEFF0" d="M14.034,13.817c1.644,0,3.041-0.575,4.19-1.725c1.15-1.151,1.726-2.547,1.726-4.191
			c0-1.644-0.576-3.039-1.726-4.191c-1.149-1.149-2.547-1.725-4.19-1.725c-1.642,0-3.039,0.575-4.189,1.725
			c-1.15,1.152-1.726,2.547-1.726,4.191c0,1.644,0.575,3.04,1.726,4.191C10.995,13.242,12.393,13.817,14.034,13.817z"/>
		<polygon fill="#ECEFF0" points="22.907,22.688 17.979,17.76 8.119,27.619 8.119,33.536 51.5,33.536 51.5,19.731 38.681,6.915 		
			"/>
	</g>
</g>
</svg>
